<svg t="1744529398367" fill='#fff' class="icon" viewBox="0 0 1024 1024" version="1.1"
    xmlns="http://www.w3.org/2000/svg" p-id="2029" width="200" height="200">
    <path d="M417.322744 751.395427a208.373575 208.373575 0 0 1-1.692985 25.981845c0.607563-4.348512 1.208299-8.819901 1.815862-13.168413a199.847216 199.847216 0 0 1-14.014904 51.356127c1.692984-3.986704 3.413274-7.857358 4.956074-11.844063a197.710506 197.710506 0 0 1-25.620037 43.621647c2.539476-3.413274 5.195004-6.642232 7.734479-10.0282a205.895538 205.895538 0 0 1-35.498053 35.498054c3.413274-2.539476 6.649059-5.195004 10.0282-7.73448a207.629482 207.629482 0 0 1-43.621647 25.620038c3.986704-1.692984 7.857358-3.413274 11.844062-4.956075a203.431154 203.431154 0 0 1-51.356126 14.014905l13.168412-1.815862a206.653285 206.653285 0 0 1-51.840811 0l13.168412 1.815862a199.806257 199.806257 0 0 1-51.356126-14.014905c3.986704 1.692984 7.857358 3.413274 11.844062 4.956075a197.649067 197.649067 0 0 1-43.621647-25.620038c3.413274 2.539476 6.649059 5.195004 10.0282 7.73448a205.875059 205.875059 0 0 1-35.498054-35.498054c2.539476 3.413274 5.195004 6.649059 7.73448 10.0282a207.615829 207.615829 0 0 1-25.620037-43.621647c1.692984 3.986704 3.413274 7.857358 4.956074 11.844063a203.431154 203.431154 0 0 1-14.014905-51.356127c0.607563 4.348512 1.208299 8.819901 1.815862 13.168413a206.721551 206.721551 0 0 1 0-51.840812c-0.607563 4.348512-1.208299 8.819901-1.815862 13.168413a199.847216 199.847216 0 0 1 14.014905-51.356127c-1.692984 3.986704-3.413274 7.857358-4.956074 11.844062a197.730986 197.730986 0 0 1 25.620037-43.621646c-2.539476 3.413274-5.195004 6.649059-7.73448 10.0282a205.902365 205.902365 0 0 1 35.498054-35.498054c-3.413274 2.539476-6.649059 5.195004-10.0282 7.73448a207.656788 207.656788 0 0 1 43.621647-25.613211c-3.986704 1.692984-7.857358 3.413274-11.844062 4.956074a203.431154 203.431154 0 0 1 51.356126-14.014905l-13.168412 1.809036a204.195728 204.195728 0 0 1 52.926232 0.122878l-13.168412-1.815862a203.431154 203.431154 0 0 1 50.516461 13.898853c-3.986704-1.692984-7.857358-3.413274-11.844062-4.956074a203.533552 203.533552 0 0 1 42.898032 25.135352c-3.413274-2.539476-6.649059-5.195004-10.0282-7.734479a208.694423 208.694423 0 0 1 35.887167 35.648237c-2.539476-3.413274-5.195004-6.649059-7.73448-10.0282a207.697747 207.697747 0 0 1 25.736089 43.860576c-1.692984-3.986704-3.413274-7.857358-4.956074-11.844062a200.523044 200.523044 0 0 1 13.775975 50.147827c-0.607563-4.348512-1.208299-8.819901-1.809035-13.168412a188.22843 188.22843 0 0 1 1.931913 27.190144 50.946534 50.946534 0 0 0 14.49959 35.040675 49.58805 49.58805 0 0 0 70.08135 0 51.267381 51.267381 0 0 0 14.499589-35.040675 244.670335 244.670335 0 0 0-48.093036-145.965267 273.922097 273.922097 0 0 0-29.122057-33.450089 283.404173 283.404173 0 0 0-33.450089-26.582581 243.380118 243.380118 0 0 0-160.826663-39.634942 278.523191 278.523191 0 0 0-42.413348 7.611602 307.679381 307.679381 0 0 0-38.064836 14.376712A244.820519 244.820519 0 0 0 60.307895 619.622556c-52.202619 81.201798-50.632512 194.556641 6.52618 272.959553a268.481338 268.481338 0 0 0 25.858967 31.402125 281.25381 281.25381 0 0 0 30.931093 26.459703 246.595422 246.595422 0 0 0 389.113281-157.085715 289.377403 289.377403 0 0 0 3.863827-42.05154 51.267381 51.267381 0 0 0-14.49959-35.040675 49.642663 49.642663 0 0 0-84.703817 35.163553z" opacity=".995" p-id="2030"></path>
    <path d="M373.69427 521.688887l-1.085421-1.447229c2.539476 3.413274 5.195004 6.649059 7.73448 10.0282a317.912377 317.912377 0 0 1-41.082171-70.313452c1.692984 3.986704 3.413274 7.857358 4.956074 11.844062a317.755367 317.755367 0 0 1-21.510455-78.662322c0.607563 4.348512 1.208299 8.819901 1.815862 13.168413a318.704257 318.704257 0 0 1 0-85.789239c-0.607563 4.348512-1.208299 8.819901-1.815862 13.168413a317.755367 317.755367 0 0 1 21.510455-78.662322c-1.692984 3.986704-3.413274 7.857358-4.956074 11.844062a320.096873 320.096873 0 0 1 40.843242-70.08135c-2.539476 3.413274-5.195004 6.649059-7.73448 10.0282a322.527124 322.527124 0 0 1 57.035815-57.035815c-3.413274 2.539476-6.649059 5.195004-10.0282 7.73448a320.069567 320.069567 0 0 1 70.08135-40.843241c-3.986704 1.692984-7.857358 3.413274-11.844062 4.956074a316.342271 316.342271 0 0 1 78.662321-21.510455l-13.168412 1.815862a317.803153 317.803153 0 0 1 85.673187 0l-13.168413-1.815862a317.755367 317.755367 0 0 1 78.662322 21.510455c-3.986704-1.692984-7.850531-3.413274-11.844062-4.956074a320.069567 320.069567 0 0 1 70.08135 40.843241c-3.413274-2.539476-6.649059-5.195004-10.0282-7.73448a322.547604 322.547604 0 0 1 57.035815 57.035815c-2.539476-3.413274-5.195004-6.649059-7.73448-10.0282a320.096873 320.096873 0 0 1 40.843242 70.08135c-1.692984-3.986704-3.413274-7.857358-4.956075-11.844062a316.328618 316.328618 0 0 1 21.510455 78.662322c-0.600736-4.348512-1.208299-8.819901-1.815862-13.168413a424.870744 424.870744 0 0 1 2.778406 64.401661 401.442028 401.442028 0 0 1-3.140213 46.638982c0.600736-4.348512 1.208299-8.819901 1.815862-13.168413a274.659364 274.659364 0 0 1-19.114336 69.842421c1.692984-3.986704 3.413274-7.857358 4.956074-11.844062a383.174184 383.174184 0 0 1-49.301335 82.164341c2.539476-3.413274 5.195004-6.649059 7.73448-10.0282a747.677757 747.677757 0 0 1-88.936278 94.493088 49.922551 49.922551 0 0 0 0 70.08135 50.612033 50.612033 0 0 0 70.08135 0c47.485473-43.25984 92.677226-91.475754 125.669937-146.934636a323.161993 323.161993 0 0 0 43.983453-118.297264 473.14127 473.14127 0 0 0 3.747776-117.57365 364.09398 364.09398 0 0 0-60.07363-169.407635 363.172396 363.172396 0 0 0-663.977442 178.473292 362.558006 362.558006 0 0 0 47.731229 205.656609 402.083724 402.083724 0 0 0 32.501199 46.638981c7.249795 9.304586 23.892921 14.49959 35.040675 14.49959a50.516461 50.516461 0 0 0 35.040675-14.49959 49.676796 49.676796 0 0 0 14.49959-35.040675c-0.607563-4.348512-1.208299-8.819901-1.815862-13.168412a52.004649 52.004649 0 0 0-12.895351-21.756211z" opacity=".995" p-id="2031"></path>
    <path d="M908.977614 875.495258a161.789206 161.789206 0 0 1-9.905322 14.499589c2.539476-3.413274 5.195004-6.649059 7.73448-10.0282a159.147332 159.147332 0 0 1-27.79088 27.79088c3.413274-2.539476 6.649059-5.195004 10.0282-7.73448a162.075921 162.075921 0 0 1-33.347691 19.571716c3.986704-1.692984 7.857358-3.413274 11.844062-4.956075a155.065056 155.065056 0 0 1-39.750994 10.874693l13.168413-1.815862a162.069095 162.069095 0 0 1-40.481434 0l13.168412 1.815862a162.082748 162.082748 0 0 1-40.481434-10.997571c3.986704 1.692984 7.857358 3.413274 11.844062 4.956075a168.219815 168.219815 0 0 1-35.498054-20.663963c3.413274 2.539476 6.649059 5.195004 10.028201 7.734479a167.516681 167.516681 0 0 1-28.876302-28.876301c2.539476 3.413274 5.195004 6.649059 7.73448 10.0282a163.591415 163.591415 0 0 1-21.02577-35.764289c1.692984 3.986704 3.413274 7.857358 4.956074 11.844062a150.361564 150.361564 0 0 1-10.151078-36.863363c0.607563 4.348512 1.208299 8.819901 1.815862 13.168412a149.719868 149.719868 0 0 1 0-38.911328c-0.607563 4.348512-1.208299 8.819901-1.815862 13.168413a164.11706 164.11706 0 0 1 11.482255-41.3211c-1.692984 3.986704-3.413274 7.850531-4.956074 11.844062a202.277467 202.277467 0 0 1 25.736089-43.498769c-2.539476 3.413274-5.195004 6.649059-7.73448 10.0282a253.647247 253.647247 0 0 1 37.218344-38.303765 49.98399 49.98399 0 0 0 14.49959-35.040675 50.516461 50.516461 0 0 0-14.49959-35.040675 49.683622 49.683622 0 0 0-35.040675-14.499589 55.882128 55.882128 0 0 0-35.040675 14.499589 260.480622 260.480622 0 0 0-81.07892 118.420142 192.508676 192.508676 0 0 0-8.942779 66.81826 214.817837 214.817837 0 0 0 5.461239 38.426643 216.981853 216.981853 0 0 0 13.653098 37.457273 203.328756 203.328756 0 0 0 38.78845 56.428252 199.021204 199.021204 0 0 0 52.202619 39.150258 196.870841 196.870841 0 0 0 60.756284 20.786841 232.560038 232.560038 0 0 0 37.703029 3.502019 242.588238 242.588238 0 0 0 38.542694-4.095929 187.272713 187.272713 0 0 0 67.180067-26.582581 209.069883 209.069883 0 0 0 66.57933-67.910507 49.574397 49.574397 0 1 0-85.673187-49.902072z" opacity=".995" p-id="2032"></path>
</svg>